:SAMPLES-PER-SECOND 30
:FULLY-SPECIFIED
:DEGREES
395
root  -5.21923 38.4809 1.64537 -131.776 -81.3193 127.65
RightUpLeg  -35.9886 5.2243 3.14796
RightLeg  40.5339 -0.654177 -0.873689
RightFoot  23.4549 -4.96168 16.3158
RightToes  7.56698e-010 0 -3.6325e-017
Spine  11.1291 -3.17417 -5.82726
Spine1  2.11986 -5.85309 11.5123
HEad  -15.3755 23.4672 -24.1512
LeftShoulder1  1.95787 -5.11102 -15.9281
LeftArm  -37.6441 -25.8291 -41.2435
LeftForeArm  157.614 -56.9208 -164.304
LeftHand  -0.246862 4.35874 27.6236
RightShoulder  2.27023 5.3102 19.3388
RightArm  -30.4086 6.54109 46.4481
RightForeArm  13.2729 -0.298213 5.66709
RightHand  -1.25886 5.44129 -13.7397
LeftUpLeg  15.0752 2.56479 -9.64089
LeftLeg  26.2054 6.33402 4.04964
LeftFoot  -9.92498 0.0827459 -4.74875
LeftToes  -3.13779e-010 -2.47553e-011 -5.36621e-011
396
root  -5.68254 37.0269 2.01868 -111.07 -79.8736 107.107
RightUpLeg  -36.9529 6.43141 3.09945
RightLeg  43.4138 -4.18147 -4.5627
RightFoot  19.6474 -1.04081 3.80345
RightToes  7.56698e-010 0 -3.6325e-017
Spine  8.99699 -4.56735 -8.74023
Spine1  2.97577 -7.74135 12.0668
HEad  -16.5056 24.1637 -24.2078
LeftShoulder1  1.4551 -3.43011 -14.0692
LeftArm  -40.0755 -28.8663 -38.9054
LeftForeArm  166.27 -44.0591 -170.106
LeftHand  0.099081 5.78718 28.5612
RightShoulder  2.40102 5.51778 20.2617
RightArm  -32.3528 -0.0781918 45.5868
RightForeArm  15.0141 5.99463 5.98476
RightHand  -1.30791 5.47788 -14.2003
LeftUpLeg  19.5967 -0.138903 -9.97726
LeftLeg  22.3596 -6.34424 -1.62506
LeftFoot  -18.3759 -0.297486 -7.26401
LeftToes  -3.13779e-010 -2.47553e-011 -5.36621e-011
397
root  -6.03199 35.7255 2.37347 -93.33 -78.0042 89.8156
RightUpLeg  -37.3785 8.17082 1.24548
RightLeg  47.484 -8.81667 -10.4688
RightFoot  7.80237 1.36051 -7.53253
RightToes  7.56698e-010 0 -3.6325e-017
Spine  6.31475 -5.30544 -9.64895
Spine1  4.67858 -8.42235 10.2303
HEad  -17.0258 22.4336 -24.1062
LeftShoulder1  1.28263 -3.07734 -12.4337
LeftArm  -41.0376 -32.5895 -38.1972
LeftForeArm  170.785 -40.9363 -171.178
LeftHand  0.12814 5.91543 27.6712
RightShoulder  2.29632 5.13155 20.2343
RightArm  -33.7868 -5.01166 45.6152
RightForeArm  14.1915 10.9417 6.03803
RightHand  -1.50508 5.96496 -15.5984
LeftUpLeg  20.5406 -2.52308 -11.8461
LeftLeg  23.4303 -14.6756 -5.36509
LeftFoot  -26.5675 -0.231732 -3.10072
LeftToes  -3.13779e-010 -2.47553e-011 -5.36621e-011
398
root  -6.28434 35.0446 2.75873 -87.9385 -77.1073 84.9171
RightUpLeg  -37.7178 9.7188 -0.120822
RightLeg  50.3706 -11.062 -14.2233
RightFoot  -2.25918 0.929837 -11.307
RightToes  7.56698e-010 0 -3.6325e-017
Spine  4.40873 -4.61795 -8.01433
Spine1  6.21586 -7.30027 7.5677
HEad  -17.8881 19.3953 -25.0967
LeftShoulder1  1.45444 -3.92981 -12.478
LeftArm  -39.2566 -33.4518 -40.2816
LeftForeArm  170.611 -45.9185 -169.544
LeftHand  0.0126415 5.44666 26.4388
RightShoulder  2.17403 4.72422 20.056
RightArm  -34.5713 -5.97767 44.8079
RightForeArm  12.8872 10.9672 5.61517
RightHand  -1.74058 6.48119 -17.2174
LeftUpLeg  20.2829 -4.84916 -15.1632
LeftLeg  25.2373 -10.2728 -4.17562
LeftFoot  -31.3016 0.460963 1.74033
LeftToes  -3.13779e-010 -2.47553e-011 -5.36621e-011
399
root  -6.12062 35.4434 2.83151 -80.0931 -77.7655 76.9542
RightUpLeg  -36.6433 7.89417 0.295989
RightLeg  47.8469 -11.0717 -13.1029
RightFoot  -0.917832 1.03895 -11.2083
RightToes  7.56698e-010 0 -3.6325e-017
Spine  5.12217 -4.03968 -6.9856
Spine1  7.8267 -6.87716 7.57557
HEad  -20.6172 16.5738 -25.626
LeftShoulder1  1.71846 -5.09469 -12.9719
LeftArm  -35.1627 -30.1132 -45.0451
LeftForeArm  166.837 -55.5518 -165.41
LeftHand  -0.130119 4.79561 24.5791
RightShoulder  2.21144 4.92372 19.8619
RightArm  -35.981 -2.58361 44.6067
RightForeArm  12.4561 7.68832 4.81333
RightHand  -1.8868 6.64311 -18.3727
LeftUpLeg  19.1385 -7.48847 -15.8204
LeftLeg  26.733 -4.93606 -2.1666
LeftFoot  -29.0846 0.253647 0.246607
LeftToes  -3.13779e-010 -2.47553e-011 -5.36621e-011
400
root  -5.45832 36.8947 2.39597 -61.8806 -77.9025 58.1286
RightUpLeg  -32.4561 1.97055 1.40452
RightLeg  37.2795 -9.87942 -8.3696
RightFoot  10.2542 1.7182 -8.90552
RightToes  7.56698e-010 0 -3.6325e-017
Spine  8.20104 -4.2134 -7.50434
Spine1  9.29289 -7.536 9.0727
HEad  -23.4183 13.6476 -22.96
LeftShoulder1  1.85145 -6.28374 -11.8115
LeftArm  -30.9174 -25.5813 -51.6303
LeftForeArm  153.499 -69.9845 -149.279
LeftHand  -0.344932 3.58833 22.1757
RightShoulder  2.3067 5.47631 19.2586
RightArm  -37.1031 2.13485 47.0853
RightForeArm  12.6799 5.36981 3.80504
RightHand  -1.94584 6.72157 -18.8076
LeftUpLeg  14.8438 -8.8116 -11.9142
LeftLeg  30.69 -7.66236 -4.65132
LeftFoot  -17.067 -0.0997089 -4.66396
LeftToes  -3.13779e-010 -2.47553e-011 -5.36621e-011
401
root  -4.64273 38.635 1.7764 -46.9222 -77.401 42.8283
RightUpLeg  -26.0084 -4.21317 2.02882
RightLeg  22.3763 -4.14155 -2.17313
RightFoot  21.4234 -0.115707 0.739075
RightToes  7.56698e-010 0 -3.6325e-017
Spine  11.9537 -3.66035 -5.89952
Spine1  9.69009 -6.45247 7.38529
HEad  -22.8786 9.30436 -17.1847
LeftShoulder1  1.89553 -7.74894 -9.48947
LeftArm  -27.8441 -24.1648 -57.811
LeftForeArm  70.8057 -77.7439 -60.8025
LeftHand  -0.903513 0.682486 21.9733
RightShoulder  2.32811 5.84729 18.3985
RightArm  -37.7758 4.90898 50.6766
RightForeArm  14.3046 6.01708 3.76962
RightHand  -2.02125 7.09605 -18.9503
LeftUpLeg  6.29837 -7.31268 -7.2319
LeftLeg  38.3685 -7.40992 -5.64438
LeftFoot  1.41604 0.598096 -6.11859
LeftToes  -3.13779e-010 -2.47553e-011 -5.36621e-011
402
root  -4.10003 39.9727 1.26657 -41.0242 -78.7514 37.1244
RightUpLeg  -19.8569 -5.6999 2.1043
RightLeg  12.2308 5.26994 1.6543
RightFoot  24.2653 -5.04117 16.529
RightToes  7.56698e-010 0 -3.6325e-017
Spine  15.0176 -1.94603 -1.38579
Spine1  8.89514 -2.73952 2.16343
HEad  -19.3136 3.59735 -10.8702
LeftShoulder1  1.98915 -9.06101 -8.33375
LeftArm  -24.3265 -27.1234 -61.4631
LeftForeArm  21.643 -51.1842 -10.7296
LeftHand  -1.54814 -2.0855 24.0345
RightShoulder  2.3263 6.24906 17.2737
RightArm  -36.9509 6.18508 52.8326
RightForeArm  14.8035 8.83 4.74092
RightHand  -2.20851 7.84663 -19.5122
LeftUpLeg  -4.09776 -4.31852 -4.42637
LeftLeg  47.1341 2.27591 3.27691
LeftFoot  17.2389 0.640539 -2.91969
LeftToes  -3.13779e-010 -2.47553e-011 -5.36621e-011
403
root  -3.7764 40.8814 0.762225 -34.9101 -81.3396 31.1703
RightUpLeg  -15.4079 -1.67533 2.59268
RightLeg  12.1223 9.60218 2.72099
RightFoot  18.7224 -6.39508 23.779
RightToes  7.56698e-010 0 -3.6325e-017
Spine  17.3216 -0.132722 2.6797
Spine1  8.43652 0.86903 -2.11409
HEad  -16.3065 -1.19714 -5.40363
LeftShoulder1  2.0628 -9.21133 -8.79216
LeftArm  -21.6698 -31.7606 -62.9265
LeftForeArm  10.1666 -23.9961 -5.25021
LeftHand  -1.62689 -2.43005 24.0752
RightShoulder  2.269 6.77136 15.3234
RightArm  -34.0938 8.90461 53.7962
RightForeArm  11.813 13.0389 5.45208
RightHand  -2.52572 8.80759 -20.762
LeftUpLeg  -13.8573 -3.05274 -2.21047
LeftLeg  54.2033 10.5077 15.4562
LeftFoot  22.8484 -0.260826 0.452173
LeftToes  -3.13779e-010 -2.47553e-011 -5.36621e-011
404
root  -3.62538 41.4991 0.166618 -24.6905 -82.25 20.4167
RightUpLeg  -10.6551 2.33166 4.01285
RightLeg  19.0219 4.98744 1.5
RightFoot  10.7039 -3.10673 15.9153
RightToes  7.56698e-010 0 -3.6325e-017
Spine  18.6149 0.720262 3.58603
Spine1  9.409 2.18435 -3.11463
HEad  -15.4968 -3.23504 -0.325652
LeftShoulder1  2.01457 -8.59871 -9.26372
LeftArm  -26.9479 -33.2682 -62.8857
LeftForeArm  9.10855 -5.07419 -6.23069
LeftHand  -1.36474 -1.81674 21.981
RightShoulder  2.05848 6.65366 13.3135
RightArm  -30.1678 14.0258 54.7874
RightForeArm  6.95573 19.859 5.15335
RightHand  -2.83209 9.65956 -21.9337
LeftUpLeg  -21.4039 -5.04051 -1.07573
LeftLeg  55.09 10.1448 15.7296
LeftFoot  22.0596 -0.67945 1.77916
LeftToes  -3.13779e-010 -2.47553e-011 -5.36621e-011
405
root  -3.7756 41.5884 -0.397134 -18.5049 -80.9095 13.2334
RightUpLeg  -4.1373 4.68348 5.34854
RightLeg  27.1869 -5.36712 -3.22561
RightFoot  3.41028 -0.612985 5.18017
RightToes  7.56698e-010 0 -3.6325e-017
Spine  18.4433 0.652134 2.22923
Spine1  10.8703 1.78841 -2.58132
HEad  -15.2306 -3.22895 4.21498
LeftShoulder1  2.11312 -8.56168 -10.2185
LeftArm  -25.3472 -29.1232 -61.4852
LeftForeArm  6.7579 1.89624 -5.67255
LeftHand  -1.13601 -1.04517 20.5364
RightShoulder  1.85906 5.80675 13.0121
RightArm  -30.7555 19.0903 54.9987
RightForeArm  7.11145 30.8822 6.23125
RightHand  -2.86206 9.93586 -21.7663
LeftUpLeg  -26.3131 -7.73952 -2.31886
LeftLeg  50.3471 5.2111 7.2534
LeftFoot  20.7224 0.341546 -1.59576
LeftToes  -3.13779e-010 -2.47553e-011 -5.36621e-011
406
root  -4.29316 41.141 -0.83968 -14.8126 -79.0807 9.07574
RightUpLeg  3.25121 3.65837 7.08252
RightLeg  32.8655 -12.0343 -8.40883
RightFoot  -0.631769 -0.0601637 0.807505
RightToes  7.56698e-010 0 -3.6325e-017
Spine  16.4471 0.487411 1.3598
Spine1  11.6832 1.40967 -2.45517
HEad  -14.0334 -3.38099 7.75201
LeftShoulder1  2.57836 -9.13505 -13.4126
LeftArm  -24.7383 -20.9462 -58.1449
LeftForeArm  7.85146 -0.00619109 -6.95931
LeftHand  -0.925322 0.132663 20.4276
RightShoulder  1.81018 5.02153 14.4028
RightArm  -34.6091 21.5411 52.9932
RightForeArm  11.1304 46.6926 11.2476
RightHand  -2.52819 9.39962 -19.9756
LeftUpLeg  -29.0583 -7.48976 -5.49285
LeftLeg  43.9527 2.65243 3.02019
LeftFoot  23.5057 2.03116 -6.91859
LeftToes  -3.13779e-010 -2.47553e-011 -5.36621e-011
407
root  -5.01833 40.3778 -1.20249 -4.98932 -77.9259 -0.0531616
RightUpLeg  10.1986 0.115608 9.28533
RightLeg  32.1374 -14.9765 -10.1433
RightFoot  -0.185161 -0.00520648 -0.00276701
RightToes  7.56698e-010 0 -3.6325e-017
Spine  12.8553 1.06144 2.56349
Spine1  11.7821 2.22962 -3.04776
HEad  -12.1649 -5.1629 10.8969
LeftShoulder1  3.15856 -9.55496 -17.5709
LeftArm  -24.5388 -12.6454 -55.46
LeftForeArm  5.68585 -5.14486 -8.1845
LeftHand  -0.808559 0.84362 20.5925
RightShoulder  1.75218 4.28947 15.7768
RightArm  -38.6285 21.1623 48.3683
RightForeArm  18.7962 64.7056 23.5441
RightHand  -2.05836 8.23702 -17.7327
LeftUpLeg  -30.2449 -3.88026 -8.44874
LeftLeg  39.3388 5.52143 5.20253
LeftFoot  27.3785 2.64794 -8.06599
LeftToes  -3.13779e-010 -2.47553e-011 -5.36621e-011
